<svg width="128" height="128" viewBox="0 0 128 128" fill="none" xmlns="http://www.w3.org/2000/svg">
  <defs>
    <linearGradient id="bg" x1="0" y1="0" x2="128" y2="128" gradientUnits="userSpaceOnUse">
      <stop offset="0%" stop-color="#1a1028"/>
      <stop offset="50%" stop-color="#0d1b3e"/>
      <stop offset="100%" stop-color="#1a1028"/>
    </linearGradient>
    <linearGradient id="galaxyQ" x1="10" y1="20" x2="70" y2="110" gradientUnits="userSpaceOnUse">
      <stop offset="0%" stop-color="#F5A623"/>
      <stop offset="30%" stop-color="#E8736C"/>
      <stop offset="60%" stop-color="#9B6FD4"/>
      <stop offset="100%" stop-color="#4A90D9"/>
    </linearGradient>
    <linearGradient id="galaxyC" x1="60" y1="20" x2="120" y2="110" gradientUnits="userSpaceOnUse">
      <stop offset="0%" stop-color="#6B8DD6"/>
      <stop offset="40%" stop-color="#8B6FD4"/>
      <stop offset="70%" stop-color="#C77DDB"/>
      <stop offset="100%" stop-color="#E8A0C8"/>
    </linearGradient>
    <filter id="glow">
      <feGaussianBlur stdDeviation="2" result="blur"/>
      <feMerge>
        <feMergeNode in="blur"/>
        <feMergeNode in="SourceGraphic"/>
      </feMerge>
    </filter>
    <clipPath id="roundClip">
      <rect width="128" height="128" rx="24"/>
    </clipPath>
  </defs>

  <g clip-path="url(#roundClip)">
    <rect width="128" height="128" fill="url(#bg)"/>

    <circle cx="15" cy="15" r="1" fill="#fff" opacity="0.8"/>
    <circle cx="45" cy="8" r="0.7" fill="#fff" opacity="0.6"/>
    <circle cx="80" cy="12" r="1.2" fill="#fff" opacity="0.7"/>
    <circle cx="110" cy="20" r="0.8" fill="#fff" opacity="0.5"/>
    <circle cx="25" cy="40" r="0.6" fill="#fff" opacity="0.4"/>
    <circle cx="100" cy="45" r="1" fill="#fff" opacity="0.6"/>
    <circle cx="15" cy="70" r="0.8" fill="#fff" opacity="0.5"/>
    <circle cx="115" cy="80" r="0.7" fill="#fff" opacity="0.4"/>
    <circle cx="64" cy="100" r="0.9" fill="#fff" opacity="0.3"/>
    <circle cx="35" cy="110" r="0.6" fill="#fff" opacity="0.4"/>
    <circle cx="95" cy="105" r="1.1" fill="#fff" opacity="0.5"/>
    <circle cx="55" cy="25" r="0.5" fill="#fff" opacity="0.6"/>
    <circle cx="75" cy="90" r="0.7" fill="#fff" opacity="0.3"/>
    <circle cx="105" cy="65" r="0.8" fill="#fff" opacity="0.4"/>
    <circle cx="30" cy="55" r="0.6" fill="#fff" opacity="0.5"/>
    <circle cx="88" cy="35" r="0.9" fill="#fff" opacity="0.6"/>
    <circle cx="50" cy="75" r="0.5" fill="#fff" opacity="0.3"/>
    <circle cx="70" cy="55" r="1" fill="#fff" opacity="0.5"/>
    <circle cx="20" cy="95" r="0.7" fill="#fff" opacity="0.4"/>
    <circle cx="108" cy="100" r="0.6" fill="#fff" opacity="0.3"/>

    <ellipse cx="64" cy="64" rx="50" ry="8" fill="url(#galaxyC)" opacity="0.15" transform="rotate(-15 64 64)"/>

    <g filter="url(#glow)">
      <path d="M38 34 C38 34 28 44 28 56 C28 66 34 74 44 78 C38 82 34 86 34 86 L34 88 C34 88 38 86 42 82 C48 86 56 88 56 88 L56 86 C56 86 52 82 46 76 C56 72 62 64 62 54 C62 42 52 34 38 34 Z M44 42 C50 42 54 48 54 56 C54 64 50 68 44 70 C40 66 36 60 36 54 C36 48 40 42 44 42 Z" fill="url(#galaxyQ)"/>
    </g>

    <g filter="url(#glow)">
      <path d="M68 34 C58 34 50 42 50 54 C50 66 58 74 68 74 L68 72 C60 72 54 64 54 54 C54 44 60 38 68 38 L68 34 Z M80 34 C70 34 62 42 62 54 C62 66 70 74 80 74 C90 74 98 66 98 54 C98 42 90 34 80 34 Z M80 42 C86 42 90 48 90 54 C90 60 86 66 80 66 C74 66 70 60 70 54 C70 48 74 42 80 42 Z" fill="url(#galaxyC)"/>
    </g>

    <ellipse cx="82" cy="56" rx="20" ry="4" fill="none" stroke="url(#galaxyC)" stroke-width="1.5" opacity="0.4" transform="rotate(-20 82 56)"/>
    <ellipse cx="82" cy="56" rx="22" ry="5" fill="none" stroke="#E8A0C8" stroke-width="0.5" opacity="0.2" transform="rotate(-20 82 56)"/>
  </g>

  <rect width="128" height="128" rx="24" fill="none" stroke="rgba(255,255,255,0.1)" stroke-width="1"/>
</svg>
